<svg height="48" viewBox="0 0 48 48" width="48" xmlns="http://www.w3.org/2000/svg"><path d="m225.638355 208h-22.989123c-1.463559 0-2.649232-1.186408-2.649232-2.649397v-42.701392c0-1.463361 1.185859-2.649211 2.649232-2.649211h42.701723c1.463 0 2.649045 1.18585 2.649045 2.649211v42.701392c0 1.463175-1.186231 2.649397-2.649045 2.649397h-12.23165v-18.588245h6.239216l.934234-7.244169h-7.17345v-4.624945c0-2.097354.582407-3.526631 3.589985-3.526631l3.836021-.001677v-6.479242c-.663425-.088283-2.940527-.285521-5.589759-.285521-5.530718 0-9.317197 3.375956-9.317197 9.575639v5.342377h-6.255233v7.244169h6.255233z" fill="#4460a0" fill-rule="evenodd" transform="translate(-200 -160)"/></svg>