<svg height="49" viewBox="0 0 48 49" width="48" xmlns="http://www.w3.org/2000/svg"><path d="m424.337382 879.648515v9.70297s9.350374-.012614 13.157608-.012614c-2.06169 6.290193-5.267477 9.715584-13.157608 9.715584-7.98483 0-14.216887-6.516272-14.216887-14.554455s6.232057-14.554455 14.216887-14.554455c4.221692 0 6.948202 1.493772 9.449169 3.575787 2.00193-2.015307 1.834701-2.302515 6.927961-7.14454-4.32362-3.961723-10.070134-6.376792-16.37713-6.376792-13.441223 0-24.337382 10.968965-24.337382 24.5 0 13.530792 10.896159 24.5 24.337382 24.5 20.09087 0 25.001479-17.610891 23.373525-29.351485z" fill="#fff" fill-rule="evenodd" transform="translate(-400 -860)"/></svg>