<svg height="48" viewBox="0 0 48 48" width="48" xmlns="http://www.w3.org/2000/svg"><path d="m524.000048 160c6.517961 0 7.335266.027628 9.895121.144427 2.55452.116512 4.299166.52226 5.825743 1.11559 1.578212.613241 2.916634 1.43388 4.25096 2.768111 1.334231 1.334326 2.15487 2.672748 2.768207 4.25096.593234 1.526577.998982 3.271223 1.115494 5.825743.116799 2.559855.144427 3.37716.144427 9.895217 0 6.517961-.027628 7.335266-.144427 9.895121-.116512 2.55452-.52226 4.299166-1.115494 5.825743-.613337 1.578212-1.433976 2.916634-2.768207 4.25096-1.334326 1.334231-2.672748 2.15487-4.25096 2.768207-1.526577.593234-3.271223.998982-5.825743 1.115494-2.559855.116799-3.37716.144427-9.895121.144427-6.518057 0-7.335362-.027628-9.895217-.144427-2.55452-.116512-4.299166-.52226-5.825743-1.115494-1.578212-.613337-2.916634-1.433976-4.25096-2.768207-1.334231-1.334326-2.15487-2.672748-2.768111-4.25096-.59333-1.526577-.999078-3.271223-1.11559-5.825743-.116799-2.559855-.144427-3.37716-.144427-9.895121 0-6.518057.027628-7.335362.144427-9.895217.116512-2.55452.52226-4.299166 1.11559-5.825743.613241-1.578212 1.43388-2.916634 2.768111-4.25096 1.334326-1.334231 2.672748-2.15487 4.25096-2.768111 1.526577-.59333 3.271223-.999078 5.825743-1.11559 2.559855-.116799 3.37716-.144427 9.895217-.144427zm0 4.324317c-6.408308 0-7.167404.024484-9.698108.139949-2.339976.1067-3.610758.49768-4.456453.826355-1.120258.435376-1.919749.955445-2.759537 1.795329-.839884.839788-1.359953 1.639279-1.795329 2.759537-.328675.845695-.719655 2.116477-.826355 4.456453-.115465 2.530704-.139949 3.2898-.139949 9.698108 0 6.408212.024484 7.167308.139949 9.698012.1067 2.339976.49768 3.610758.826355 4.456453.435376 1.120258.95554 1.919749 1.795329 2.759537.839788.839884 1.639279 1.359953 2.759537 1.795329.845695.328675 2.116477.719655 4.456453.826355 2.530418.115465 3.289324.139949 9.698108.139949 6.408688 0 7.167689-.024484 9.698012-.139949 2.339976-.1067 3.610758-.49768 4.456453-.826355 1.120258-.435376 1.919749-.955445 2.759537-1.795329.839884-.839788 1.359953-1.639279 1.795329-2.759537.328675-.845695.719655-2.116477.826355-4.456453.115465-2.530704.139949-3.2898.139949-9.698012 0-6.408308-.024484-7.167404-.139949-9.698108-.1067-2.339976-.49768-3.610758-.826355-4.456453-.435376-1.120258-.955445-1.919749-1.795329-2.759537-.839788-.839884-1.639279-1.359953-2.759537-1.795329-.845695-.328675-2.116477-.719655-4.456453-.826355-2.530704-.115465-3.2898-.139949-9.698012-.139949zm0 7.351366c6.806528 0 12.324269 5.517741 12.324269 12.324365 0 6.806528-5.517741 12.324269-12.324269 12.324269-6.806624 0-12.324365-5.517741-12.324365-12.324269 0-6.806624 5.517741-12.324365 12.324365-12.324365zm0 20.324317c4.418251 0 7.999952-3.581701 7.999952-7.999952 0-4.418347-3.581701-8.000048-7.999952-8.000048-4.418347 0-8.000048 3.581701-8.000048 8.000048 0 4.418251 3.581701 7.999952 8.000048 7.999952zm15.691236-20.811232c0 1.590597-1.289455 2.879956-2.880052 2.879956-1.590502 0-2.879956-1.289359-2.879956-2.879956s1.289454-2.880052 2.879956-2.880052c1.590597 0 2.880052 1.289455 2.880052 2.880052z" fill="#fff" fill-rule="evenodd" transform="translate(-500 -160)"/></svg>