<svg height="40" viewBox="0 0 44 40" width="44" xmlns="http://www.w3.org/2000/svg"><path d="m746 305h-9.7246v-14.0616c0-3.680604-1.521167-6.19325-4.866181-6.19325-2.55856 0-3.98142 1.695588-4.643697 3.329704-.248354.586541-.209548 1.403599-.209548 2.220657v14.704489h-9.634055s.124177-24.908753 0-27.172953h9.634055v4.264584c.569144-1.864635 3.647695-4.525837 8.560442-4.525837 6.095014 0 10.883584 3.908561 10.883584 12.32503zm-38.82079-30.571813h-.062089c-3.104421 0-5.117121-2.077223-5.117121-4.710251 0-2.684255 2.072201-4.717936 5.238711-4.717936 3.163923 0 5.10936 2.028559 5.171449 4.710252 0 2.633028-2.007526 4.717935-5.23095 4.717935zm-4.069379 3.39886h8.575964v27.172953h-8.575964z" fill="#fff" fill-rule="evenodd" transform="translate(-702 -265)"/></svg>