<svg height="40" viewBox="0 0 48 40" width="48" xmlns="http://www.w3.org/2000/svg"><path d="m348 168.735283c-1.763691.803179-3.662617 1.346335-5.654517 1.589022 2.034161-1.248104 3.594999-3.227158 4.33034-5.584688-1.90456 1.155652-4.009156 1.996389-6.257439 2.447093-1.791865-1.961719-4.35288-3.18671-7.187181-3.18671-5.43476 0-9.843987 4.521488-9.843987 10.097508 0 .791622.084522 1.56013.253566 2.299747-8.18454-.421813-15.439338-4.437703-20.299349-10.55399-.848036 1.496569-1.332629 3.232936-1.332629 5.081979 0 3.501625 1.738335 6.592994 4.381053 8.404478-1.611551-.049115-3.132946-.508487-4.462757-1.259661v.124233c0 4.894186 3.394964 8.976526 7.9028 9.901047-.825498.236909-1.696074.355363-2.594823.355363-.633915 0-1.253742-.060671-1.853848-.179126 1.253742 4.010112 4.888185 6.931022 9.198803 7.009029-3.369608 2.710003-7.618243 4.325027-12.230323 4.325027-.794506 0-1.58056-.046226-2.349709-.138678 4.358514 2.860238 9.53689 4.533044 15.095615 4.533044 18.115866 0 28.019018-15.384615 28.019018-28.729505 0-.439148-.008452-.878296-.025357-1.308776 1.924283-1.424341 3.594999-3.201156 4.910724-5.226436" fill="#fff" fill-rule="evenodd" transform="translate(-300 -164)"/></svg>