<svg height="41" viewBox="0 0 48 41" width="48" xmlns="http://www.w3.org/2000/svg"><path d="m347.975851 374.479329c-.208849 4.620685-3.477043 10.937111-9.782005 18.952072-6.5251 8.380929-12.053936 12.568599-16.572398 12.568599-2.794052 0-5.161941-2.547802-7.095199-7.660168-1.295424-4.690527-2.582382-9.381053-3.874984-14.057611-1.43936-5.11516-2.980322-7.671343-4.62853-7.671343-.358429 0-1.608697.745903-3.764915 2.240502l-2.25782-2.880246c2.365066-2.053327 4.696265-4.115036 6.996419-6.171157 3.149659-2.698659 5.517548-4.115036 7.098022-4.263099 3.725403-.357586 6.022734 2.165073 6.889173 7.559598.922884 5.824745 1.572007 9.445306 1.930436 10.864476 1.078109 4.827415 2.25782 7.235535 3.550422 7.235535 1.001907 0 2.509002-1.558853 4.518462-4.679352 2.009459-3.126086 3.079102-5.500682 3.22586-7.137757.287872-2.698659-.787415-4.039607-3.22586-4.039607-1.148666 0-2.334022.240253-3.550422.743109 2.370711-7.595915 6.886351-11.289111 13.558208-11.074 4.941804.136888 7.275825 3.299292 6.985131 9.470449" fill-rule="evenodd" transform="translate(-300 -365)"/></svg>