<svg height="48" viewBox="0 0 48 48" width="48" xmlns="http://www.w3.org/2000/svg"><path d="m723.993033 360v.000398h.013934c13.230781 0 23.993033 10.765287 23.993033 23.999801 0 13.234116-10.762252 23.999801-23.993033 23.999801-4.880533 0-9.408362-1.453025-13.202518-3.964461l-9.224844 2.948259 2.990421-8.916851c-2.877365-3.950922-4.570026-8.818496-4.570026-14.067146 0-13.234514 10.762252-23.999801 23.993033-23.999801zm-6.700183 12.190836c-.465362-1.114556-.818066-1.156765-1.523076-1.185435-.240046-.013937-.50756-.027874-.804134-.027874-.91719 0-1.876178.267987-2.454597.860506-.70501.719544-2.4542 2.398347-2.4542 5.841169 0 3.442821 2.510728 6.772554 2.849101 7.238446.352704.465095 4.894864 7.632662 11.947353 10.553844 5.515082 2.285657 7.151613 2.073815 8.406777 1.805828 1.833584-.395012 4.132928-1.750081 4.711347-3.386277.578419-1.636993.578419-3.033872.408834-3.330131-.169187-.29626-.634947-.465096-1.339957-.818297-.70501-.352804-4.132928-2.045942-4.781808-2.271721-.634947-.239715-1.241231-.154899-1.720527.522436-.677144.945323-1.339957 1.90498-1.876178 2.483164-.423166.451557-1.114641.508101-1.692662.267987-.775869-.324133-2.947825-1.086683-5.628138-3.471093-2.073629-1.848038-3.484047-4.147632-3.892881-4.838904-.409233-.705209-.042197-1.114955.281844-1.495632.352705-.43762.691078-.747816 1.043782-1.157164.352704-.40895.550154-.620791.775869-1.10062.240046-.465493.070461-.945322-.098725-1.298126-.169187-.352803-1.579605-3.795625-2.158024-5.192106z" fill="#fff" fill-rule="evenodd" transform="translate(-700 -360)"/></svg>