<svg height="34" viewBox="0 0 48 34" width="48" xmlns="http://www.w3.org/2000/svg"><path d="m219.044 391.269916-.0015-13.582174 12.969 6.814502zm28.476-15.935753s-.4695-3.330964-1.908-4.797797c-1.8255-1.926067-3.8715-1.935131-4.809-2.046918-6.717-.489448-16.7925-.489448-16.7925-.489448h-.021s-10.0755 0-16.7925.489448c-.939.111787-2.9835.120851-4.8105 2.046918-1.4385 1.466833-1.9065 4.797797-1.9065 4.797797s-.48 3.91256-.48 7.82361v3.667837c0 3.91256.48 7.82361.48 7.82361s.468 3.330964 1.9065 4.797796c1.827 1.926068 4.2255 1.865642 5.2935 2.066558 3.84.371617 16.32.486426 16.32.486426s10.086-.015106 16.803-.504554c.9375-.113298 2.9835-.122362 4.809-2.04843 1.4385-1.466832 1.908-4.797796 1.908-4.797796s.48-3.91105.48-7.82361v-3.667837c0-3.91105-.48-7.82361-.48-7.82361z" fill-rule="evenodd" transform="translate(-200 -368)"/></svg>